# xmcd
#
# Track frame offsets:
#	150
#	10810
#	29632
#	57642
#	70297
#
# Disc length: 1125 seconds
#
# Revision: 2
# Processed by: cddbd v1.5.2PL0 Copyright (c) Steve Scherf et al.
# Submitted via: audiograbber 1.83.01
#
DISCID=44046305
DTITLE=Julio Iglesias - Tour Souvenir Collection (Live In Concert)
DYEAR=1992
DGENRE=Easy Listening
TTITLE0=To All The Girls I've Loved Before (Live in Australia)
TTITLE1=When I Need You (Live in Australia)
TTITLE2=Brazilian Medley (Live in Australia)
TTITLE3=Moonlight Lady (Live in Australia)
TTITLE4=Can't Help Falling In Love (Live in Australia)
EXTD=
EXTT0=
EXTT1=
EXTT2=
EXTT3=
EXTT4=
PLAYORDER=
